<svg width="100" height="22" viewBox="0 0 191 40" fill="currentColor" xmlns="http://www.w3.org/2000/svg">
  <path d="M164.672 19.2701C166.618 19.9513 168.759 20.3406 171.29 20.3406C178.005 20.3406 181.606 16.9343 181.606 11.0949C181.606 4.86618 177.518 1.45985 170.024 1.45985H164.574V19.2701H164.672ZM188.419 35.4258C189.1 37.5669 189.586 38.8321 190.268 39.9027H182.968C182.774 38.6375 182.482 37.1776 182.19 35.9124L180.73 29.781C179.27 23.6496 176.934 21.8005 170.608 21.8005H164.477V31.0462C164.477 34.5499 164.672 37.4696 165.255 39.9027H158.443C158.735 37.4696 158.929 34.5499 158.929 31.0462V8.85645C158.929 5.3528 158.735 2.43309 158.443 0H170.219C181.606 0 187.543 3.6983 187.543 10.7056C187.543 16.4477 183.455 20.3406 176.156 21.1192C182.287 22.2871 184.915 24.5255 186.472 29.5864L188.419 35.4258ZM151.241 34.8419L150.852 39.9027H124.672C124.964 37.4696 125.158 34.5499 125.158 31.0462V8.85645C125.158 5.3528 124.964 2.43309 124.672 0H149.878L149.1 4.18492L142.579 2.43309C140.049 1.75182 137.908 1.45985 134.793 1.45985H130.706V18.3942H134.793C137.616 18.3942 141.314 18.1022 146.083 17.3236V21.2165C141.314 20.438 137.616 20.146 134.793 20.146H130.706V38.3455H134.209C137.908 38.3455 140.925 37.9562 144.623 36.8856L151.241 34.8419ZM114.258 31.1436C114.258 34.6472 114.453 37.5669 114.745 40H108.127C108.419 37.5669 108.613 34.6472 108.613 31.1436V8.85645C108.613 5.3528 108.419 2.43309 108.127 0H114.745C114.453 2.43309 114.258 5.3528 114.258 8.85645V31.1436ZM83.4063 22.4818C90.1217 22.4818 93.9173 18.6861 93.9173 12.1655C93.9173 5.3528 89.635 1.45985 82.2384 1.45985H76.8857V21.1192C79.1241 21.9951 81.4599 22.4818 83.4063 22.4818ZM82.5304 0C93.9173 0 99.9513 4.18492 99.9513 11.9708C99.9513 19.7567 94.0146 24.2336 83.6983 24.2336C81.6545 24.2336 79.1241 24.0389 76.8857 23.6496V31.1436C76.8857 34.6472 77.0803 37.5669 77.6642 40H70.8516C71.1436 37.5669 71.3382 34.6472 71.3382 31.1436V8.85645C71.3382 5.3528 71.1436 2.43309 70.8516 0H82.5304ZM44.8662 2.72506L37.5669 24.1363H52.1655L44.8662 2.72506ZM56.7397 40C55.8638 35.8151 54.5012 30.8516 52.944 26.0827H36.983C35.5231 30.7543 34.7445 35.0365 34.0633 40H28.8078C31.2409 34.9392 33.7713 29.0998 35.4258 24.4282L44.1849 0H50.219C50.511 1.36253 51.2895 3.89295 52.2628 6.61801L59.562 27.4453C61.1192 32.1168 62.5791 35.6204 64.2336 39.9027H56.7397V40ZM12.5547 22.4818C19.2701 22.4818 23.0657 18.6861 23.0657 12.1655C23.0657 5.3528 18.7835 1.45985 11.3869 1.45985H6.03406V21.1192C8.27251 21.9951 10.6083 22.4818 12.5547 22.4818ZM11.6788 0C23.0657 0 29.0998 4.18492 29.0998 11.9708C29.0998 19.7567 23.163 24.2336 12.8467 24.2336C10.8029 24.2336 8.27251 24.0389 6.03406 23.6496V31.1436C6.03406 34.6472 6.22871 37.5669 6.81265 40H0C0.291971 37.5669 0.486618 34.6472 0.486618 31.1436V8.85645C0.486618 5.3528 0.291971 2.43309 0 0H11.6788Z" fill="#1e2525"/>
</svg>